<?xml version="1.0" encoding="UTF-8"?>
<svg width="96px" height="97px" viewBox="0 0 96 97" version="1.1" xmlns="http://www.w3.org/2000/svg" xmlns:xlink="http://www.w3.org/1999/xlink">
    <!-- Generator: Sketch 56.3 (81716) - https://sketch.com -->
    <title>Group</title>
    <desc>Created with Sketch.</desc>
    <defs>
        <linearGradient x1="50%" y1="100%" x2="50%" y2="0%" id="linearGradient-1">
            <stop stop-color="#488D17" offset="0%"></stop>
            <stop stop-color="#4C9618" offset="4%"></stop>
            <stop stop-color="#54A71B" offset="15%"></stop>
            <stop stop-color="#5AB21D" offset="29%"></stop>
            <stop stop-color="#5DB91E" offset="47%"></stop>
            <stop stop-color="#76B83F" offset="100%"></stop>
        </linearGradient>
    </defs>
    <g id="Symbols" stroke="none" stroke-width="1" fill="none" fill-rule="evenodd">
        <g id="Logo---Web---Light">
            <g id="ut-logo-web-light">
                <g id="Group" transform="translate(0.000000, 0.790055)">
                    <circle id="Oval" fill="url(#linearGradient-1)" fill-rule="nonzero" cx="48" cy="48" r="48"></circle>
                    <path d="M53.8666667,92.9715556 C69.9416552,90.6938846 83.448458,79.7841014 89,64.5934815 C88.5714286,64.7546667 88.047619,64.9442963 87.4190476,65.1244444 C82.7865788,66.4550097 77.7957845,65.5573633 73.9238095,62.6971852 C73.1721525,62.0881416 72.3867936,61.5215244 71.5714286,61 C70.9047619,65.1339259 67.1142857,70.8702222 58.4666667,73.4681481 C53.7047619,74.8998519 48.6285714,74.9377778 45,72.8992593 L46.2,75.9712593 C46.6761905,77.1659259 47.4857143,79.1191111 47.9809524,80.3137778 C47.9809524,80.3137778 51.1238095,87.7662222 53.8666667,93" id="Path" fill="#437A18"></path>
                    <path d="M14.0039761,31.08479 L26.990586,28.6667731 C28.167517,28.4786542 29.328793,29.0839378 29.8510728,30.1577242 L38.7662565,52.4646472 C39.3793697,53.8171311 40.1370645,55.0989483 41.026041,56.2875989 C41.026041,56.2875989 47.1856225,65.0995025 56.5680191,62.9777643 C62.8992297,61.5250426 65.8550661,56.7654678 66.1029749,53.4203851 C66.2403371,52.1384964 66.0052486,50.844128 65.425993,49.6930072 L54.7277726,25.4268215 C54.5100393,24.998067 54.5135891,24.4900306 54.7372923,24.064375 C54.9609955,23.6387194 55.3769884,23.348463 55.8528974,23.2859686 L66.6750723,21.2693616 C67.7439978,21.1263653 68.785655,21.6791278 69.2685803,22.6456242 L81.1014605,48.0395806 C81.7114279,49.2823026 82.4293188,50.4688086 83.2468255,51.5853683 C83.2468255,51.5853683 85.7068441,55.131156 89.6543159,54.4525821 C90.3737662,54.4084131 91.0786897,54.2301472 91.7329362,53.9269262 C94.261184,30.8955085 78.5758203,9.83104431 55.8284274,5.70941241 C33.0810345,1.58778051 11.0311035,15.814934 5.35513551,38.2760118 C-0.3208325,60.7370897 12.3133238,83.7702674 34.2752923,91 C33.0834228,88.5533109 31.8820184,85.8485726 30.8999179,83.210736 L12.4402434,33.5123643 C12.2593545,32.9815185 12.3320049,32.3967854 12.637264,31.9266255 C12.9425232,31.4564657 13.4464913,31.1530916 14.0039761,31.1039048" id="Path" fill="#437A18"></path>
                    <path d="M53.8666667,92 C69.9361945,89.7196722 83.4409811,78.7993927 89,63.5903829 C88.5714286,63.7518551 88.047619,63.9323241 87.4190476,64.1222915 C82.78689,65.4612607 77.7933759,64.5615256 73.9238095,61.6907094 C73.1704249,61.0857703 72.3851793,60.5213965 71.5714286,60 C70.9047619,64.1412882 67.1142857,69.8878005 58.4666667,72.4903532 C53.7047619,73.9246067 48.6285714,73.9531018 45,71.9204512 L46.2,74.9219353 C46.6761905,76.1187296 47.4857143,78.0848917 47.9809524,79.281686 C47.9809524,79.281686 51.1238095,86.7474028 53.8666667,91.9905016" id="Path" fill="#FFFFFF"></path>
                    <path d="M14.0039761,30.08479 L26.990586,27.6667731 C28.1680415,27.4753975 29.3311516,28.0816371 29.8510728,29.1577242 L38.7662565,51.4646472 C39.3793697,52.8171311 40.1370645,54.0989483 41.026041,55.2875989 C41.026041,55.2875989 47.1856225,64.0899451 56.5680191,61.9777643 C62.8992297,60.5346 65.8550661,55.7654678 66.1029749,52.4203851 C66.2403371,51.1384964 66.0052486,49.844128 65.425993,48.6930072 L54.7277726,24.4172642 C54.5140921,23.9893448 54.5197928,23.4843191 54.7430781,23.0613555 C54.9663633,22.6383919 55.3797299,22.349589 55.8528974,22.2859686 L66.6750723,20.2598042 C67.7451642,20.1244226 68.7842351,20.6796417 69.2685803,21.6456242 L81.1014605,47.0300233 C81.7113269,48.275827 82.4292085,49.4655157 83.2468255,50.5853683 C83.2468255,50.5853683 85.7068441,54.1215986 89.6543159,53.4525821 C90.3737662,53.4084131 91.0786897,53.2301472 91.7329362,52.9269262 C94.261184,29.8955085 78.5758203,8.83104431 55.8284274,4.70941241 C33.0810345,0.587780509 11.0311035,14.814934 5.35513551,37.2760118 C-0.3208325,59.7370897 12.3133238,82.7702674 34.2752923,90 C33.0834228,87.5533109 31.8820184,84.8485726 30.8999179,82.210736 L12.4402434,32.5123643 C12.2593545,31.9815185 12.3320049,31.3967854 12.637264,30.9266255 C12.9425232,30.4564657 13.4464913,30.1530916 14.0039761,30.1039048" id="Path" fill="#FFFFFF"></path>
                </g>
            </g>
        </g>
    </g>
</svg>