<?xml version="1.0" encoding="UTF-8"?>
<svg width="48px" height="48px" viewBox="0 0 48 48" version="1.1" xmlns="http://www.w3.org/2000/svg" xmlns:xlink="http://www.w3.org/1999/xlink">
    <!-- Generator: Sketch 56.3 (81716) - https://sketch.com -->
    <title>Group 2</title>
    <desc>Created with Sketch.</desc>
    <g id="Symbols" stroke="none" stroke-width="1" fill="none" fill-rule="evenodd">
        <g id="Logo---Primary---Green" fill="#76B83F">
            <g id="Logo-Copy">
                <g id="Group" transform="translate(0.000000, -0.000000)">
                    <g id="Group-2">
                        <path d="M27.3678,47.7609 C36.26205,46.51065 43.58955,40.3884 46.56555,32.1819 C46.3308,32.2689 46.0443,32.37165 45.7023,32.4744 C41.70105,33.6549 38.8938,31.54215 38.32755,31.1769 C37.7613,30.8154 37.15455,30.21615 37.0413,30.24765 C36.6753,32.5134 34.6053,35.65965 29.8803,37.0869 C27.2928,37.87065 24.5073,37.88865 22.5198,36.7749 L23.1753,38.4189 C23.4378,39.0744 23.87805,40.1499 24.15105,40.8024 C24.15105,40.8024 25.8678,44.8899 27.3678,47.7609" id="Fill-18"></path>
                        <path d="M5.44575,14.18775 L12.52725,12.8685 C13.17225,12.75075 13.887,13.11675 14.1135,13.6815 L18.97875,25.82325 C19.641,27.08925 19.776,27.369 20.20725,27.909 C20.20725,27.909 23.5665,32.7045 28.6875,31.533 C32.1405,30.744 33.753,28.152 33.8625,26.30775 C33.97575,25.716 33.79875,24.97125 33.49125,24.276 L27.66375,11.1015 C27.42975,10.5705 27.70725,10.04925 28.27575,9.9405 L34.18125,8.84025 C34.72275,8.7435 35.358,9.0795 35.59425,9.59325 L42.04875,23.412 C42.309,23.96475 42.83625,24.83625 43.224,25.344 C43.224,25.344 44.5665,27.27225 46.7175,26.90625 C47.24925,26.90625 47.85525,26.61825 47.85525,26.61825 C47.94975,25.758 48,24.88575 48,23.99925 C48,10.74375 37.254,0 23.997,0 C10.74375,0 0,10.74375 0,23.99925 C0,34.63575 6.92025,43.653 16.5045,46.8015 C15.85725,45.4695 15.2025,43.99725 14.66625,42.5595 L4.59525,15.49725 C4.374,14.90325 4.76175,14.316 5.44575,14.18775" id="Fill-19"></path>
                    </g>
                </g>
            </g>
        </g>
    </g>
</svg>