<svg xmlns="http://www.w3.org/2000/svg" viewBox="0 0 381.67 100"><g id="Yves_Art_Finalized" data-name="Yves Art Finalized"><path d="M379.5,38.62V45.2h-7.19V62.9c0,1.65.28,2.75.83,3.31s1.66.82,3.31.82q.84,0,1.59-.06c.51,0,3.17-.12,3.63-.21v7.6c-.83.14-3.92.23-4.94.28s-2,.07-3,.07a28.33,28.33,0,0,1-4.32-.31,10.48,10.48,0,0,1-3.6-1.21,6.5,6.5,0,0,1-2.45-2.56,9.1,9.1,0,0,1-.9-4.35V45.2h-5.94V38.62h5.94V27.9h9.82V38.62Z" style="fill:#fff"/><path d="M158.43,34.13V25h39v9.13H183.35V74.36H172.49V34.13Z" style="fill:#fff"/><path d="M190.12,48.76A16.29,16.29,0,0,1,199.66,39a20.34,20.34,0,0,1,7.6-1.35A20.66,20.66,0,0,1,214.9,39a16.83,16.83,0,0,1,5.84,3.8,17,17,0,0,1,3.73,6,22.07,22.07,0,0,1,1.31,7.77,21.74,21.74,0,0,1-1.31,7.74,16.88,16.88,0,0,1-3.73,5.91A16.35,16.35,0,0,1,214.9,74a21.3,21.3,0,0,1-7.64,1.31,21,21,0,0,1-7.6-1.31,16.31,16.31,0,0,1-5.81-3.77,16.6,16.6,0,0,1-3.73-5.91,21.52,21.52,0,0,1-1.32-7.74A21.84,21.84,0,0,1,190.12,48.76Zm8.91,12a11.19,11.19,0,0,0,1.42,3.67A7.67,7.67,0,0,0,203.11,67a8.19,8.19,0,0,0,4.15,1,8.36,8.36,0,0,0,4.18-1,7.43,7.43,0,0,0,2.69-2.59,11,11,0,0,0,1.42-3.67,20.65,20.65,0,0,0,.42-4.18,21.17,21.17,0,0,0-.42-4.21,10.73,10.73,0,0,0-1.42-3.67,7.77,7.77,0,0,0-2.69-2.59,8.06,8.06,0,0,0-4.18-1,7.9,7.9,0,0,0-4.15,1,8,8,0,0,0-2.66,2.59A10.93,10.93,0,0,0,199,52.32a21.93,21.93,0,0,0-.41,4.21A21.39,21.39,0,0,0,199,60.71Z" style="fill:#fff"/><path d="M291,65.79a10.09,10.09,0,0,0,11.48.66,6.19,6.19,0,0,0,2.62-3.14h8.64q-2.07,6.42-6.36,9.19a18.73,18.73,0,0,1-10.36,2.76,20.59,20.59,0,0,1-7.61-1.34,16,16,0,0,1-5.74-3.84,17.23,17.23,0,0,1-3.64-5.94,21.86,21.86,0,0,1-1.28-7.61,21.06,21.06,0,0,1,1.31-7.47,17.31,17.31,0,0,1,9.53-10,18.62,18.62,0,0,1,7.43-1.45A17,17,0,0,1,305,39.41a15.86,15.86,0,0,1,5.57,4.75,19.35,19.35,0,0,1,3.14,6.78,25.13,25.13,0,0,1,.69,7.94H288.62C288.76,62.06,289.57,64.37,291,65.79ZM302.14,47a6.92,6.92,0,0,0-5.36-1.93,8.56,8.56,0,0,0-3.91.79,7.49,7.49,0,0,0-2.48,2,7.33,7.33,0,0,0-1.32,2.49,11.85,11.85,0,0,0-.45,2.35h16A11.38,11.38,0,0,0,302.14,47Z" style="fill:#fff"/><path d="M328.57,38.62v5h.21a11.16,11.16,0,0,1,4.84-4.54,14.06,14.06,0,0,1,6.08-1.42,16.72,16.72,0,0,1,6.46,1.07,9.55,9.55,0,0,1,4,3,11.63,11.63,0,0,1,2,4.64,28.35,28.35,0,0,1,.59,6.05v22H343V54.18q0-4.43-1.39-6.6t-4.9-2.18c-2.68,0-4.61.8-5.81,2.38s-1.8,4.21-1.8,7.86V74.36h-9.81V38.62Z" style="fill:#fff"/><path d="M251.52,37.67l-.23,0a12,12,0,0,0-3.6.55,13.32,13.32,0,0,0-3.25,1.56,12.38,12.38,0,0,0-2.69,2.42,11.81,11.81,0,0,0-1.87,3.09h-.14V38.62h-9.33V74.36h9.81V58.26a20,20,0,0,1,.49-4.5,9.8,9.8,0,0,1,1.62-3.62,7.9,7.9,0,0,1,3-2.45,10.47,10.47,0,0,1,4.56-.91,15.07,15.07,0,0,1,1.62.09Z" style="fill:#fff"/><path d="M277.26,37.67l-.24,0a12,12,0,0,0-3.59.55,13.15,13.15,0,0,0-3.25,1.56,12.38,12.38,0,0,0-2.69,2.42,11.81,11.81,0,0,0-1.87,3.09h-.14V38.62h-9.33V74.36H266V58.26a20,20,0,0,1,.49-4.5,9.8,9.8,0,0,1,1.62-3.62,7.82,7.82,0,0,1,3-2.45,10.47,10.47,0,0,1,4.56-.91,15.07,15.07,0,0,1,1.62.09Z" style="fill:#fff"/><path d="M152.75,74.56v-5h-.2a13.55,13.55,0,0,1-2.2,2.66A15,15,0,0,1,147.87,74a11.91,11.91,0,0,1-2.4,1.09,7.13,7.13,0,0,1-2,.34,10.14,10.14,0,0,1-3.35-.45,4.62,4.62,0,0,1-1.89-1.15V87.18h-9.91V38.48h9.91V58.86c0,3,.47,5.2,1.4,6.67s2.58,2.19,5,2.19q4,0,5.86-2.4t1.82-7.92V38.48h9.9V74.56Z" style="fill:#fff"/><path id="Fill-1" d="M57.06,100A50.09,50.09,0,0,0,97,67.36c-.49.19-1.09.4-1.8.62a17.47,17.47,0,0,1-15.35-2.72c-1.18-.76-2.45-2-2.68-2-.76,4.75-5.07,11.34-14.91,14.33C56.9,79.28,51.1,79.32,47,77l1.37,3.44c.54,1.37,1.46,3.63,2,5,0,0,3.57,8.56,6.7,14.58" style="fill:#fff;fill-rule:evenodd"/><path id="Fill-3" d="M11.35,29.7,26.1,26.94a3.07,3.07,0,0,1,3.3,1.71L39.54,54.07a22.76,22.76,0,0,0,2.56,4.36s7,10,17.67,7.59C67,64.37,70.32,58.94,70.55,55.08a7.73,7.73,0,0,0-.78-4.25L57.63,23.25a1.69,1.69,0,0,1,1.28-2.44l12.3-2.3a2.87,2.87,0,0,1,2.94,1.57L87.6,49a26.86,26.86,0,0,0,2.45,4s2.8,4,7.28,3.27a6.58,6.58,0,0,0,2.37-.6A50,50,0,1,0,0,50.25,50.24,50.24,0,0,0,34.38,98c-1.35-2.79-2.71-5.87-3.83-8.88l-21-56.66a2.08,2.08,0,0,1,1.78-2.75" style="fill:#fff;fill-rule:evenodd"/></g></svg>