<svg height="38" viewBox="0 0 36 38" width="36" xmlns="http://www.w3.org/2000/svg" xmlns:xlink="http://www.w3.org/1999/xlink"><filter id="a" color-interpolation-filters="auto"><feColorMatrix in="SourceGraphic" type="matrix" values="0 0 0 0 0.462745 0 0 0 0 0.721569 0 0 0 0 0.247059 0 0 0 1.000000 0"/></filter><mask id="b" fill="#fff"><path d="m0 0h32.9361702v33.3469388h-32.9361702z" fill="#fff" fill-rule="evenodd"/></mask><mask id="c" fill="#fff"><path d="m0 0h29.8723404v30.244898h-29.8723404z" fill="#fff" fill-rule="evenodd"/></mask><g fill="#76b83f" fill-rule="evenodd" filter="url(#a)" transform="translate(-495 -1571)"><path d="m23.5990286 1.70012223c-.4329965.47366531-.8541587.9529695-1.3019481 1.40548904-.076749.07735828-.2788024.0822923-.4034107.04793042-.9293414-.25674493-1.8423235-.58626656-2.782455-.7883849-1.4644958-.3148958-2.9408259-.33674644-4.4397804-.14326261-2.2800189.29410245-4.3619872 1.07931549-6.2476452 2.37748973-2.64427202 1.82065104-4.50243263 4.26633589-5.56525804 7.33493999-.69143693 1.9958085-.91350427 4.0473009-.73042054 6.1333314.19544014 2.2250639.88826934 4.3061604 2.05708143 6.2103373 1.91141501 3.1142437 4.60058779 5.2478522 8.05098515 6.3317492 1.942219.6100556 3.9382145.8151696 5.9909451.5228293 4.9082798-.6986916 8.5508106-3.246581 10.9331615-7.6047248 1.3875728-2.5385501 1.8985365-5.2922583 1.6315684-8.2017405-.2789764-3.0367092-1.4117635-5.69120851-3.3092557-8.03398393-.0638705-.07894422-.1199094-.1645846-.2205011-.30397049.4091539-.52036223.8277055-1.05253084 1.2483456-1.58769511 4.4533551 4.41118443 6.3600712 13.12236183 1.8315335 20.26505143-5.1014576 8.0459666-15.5645534 9.9742848-23.11153618 4.8196503-7.52609869-5.1403612-9.5144367-15.5565927-4.36146512-23.19761772 5.17072305-7.66763346 14.6030157-8.83646605 20.7300554-5.58741805" mask="url(#b)" transform="translate(495 1575.653061)"/><path d="m8.5496036 19.8894393c.4622625-.929673.87118042-1.7443293 1.27340883-2.5625855 1.47495187-2.9992527 3.11422557-5.8919485 5.11078787-8.5459713 2.6269203-3.49135841 5.8306825-6.18300009 9.8768086-7.65211734 1.5444199-.56068369 3.1375532-.94443252 4.7685936-1.12568725.0555745-.00647981.1125211-.00089997.2931379-.00089997-10.3440453 7.45610305-16.351571 17.95627756-20.02600044 30.24272006-.0970837-.1195166-.18233211-.2023142-.24253773-.3018513-2.22537798-3.6834128-4.82125206-7.0476949-7.86532351-10.0233683-.54116445-.5288246-1.11045915-1.0257902-1.65042292-1.5558747-.07341312-.0719979-.11698071-.3034712-.06586597-.3711492 1.02401006-1.3568006 2.06380051-2.7004615 3.10153265-4.0459223.02538584-.0327591.06415071-.0543584.1360201-.1141167 1.74321847 1.9957819 3.48557931 3.9910239 5.28986102 6.0568238" mask="url(#c)" transform="translate(501.12766 1571)"/></g></svg>